<svg width="134" height="28" viewBox="0 0 134 28" fill="none" xmlns="http://www.w3.org/2000/svg">
<path fill-rule="evenodd" clip-rule="evenodd" d="M78.4951 11.383V6.08747L83.3212 1.75928V16.2214L78.4951 11.383ZM62.8813 0V6.83925L62.8813 22.3477L67.7074 17.3811V11.6853L83.3212 27.3636L83.3212 21.7416V19.6295L78.4951 14.791V15.6783L62.8813 0ZM62.8813 25.858V25.8013L67.7074 20.8347V25.858H62.8813ZM47.2674 26.1418C54.0876 26.1418 59.6165 20.6129 59.6165 13.7927C59.6165 6.97246 54.0876 1.44356 47.2674 1.44356C40.4472 1.44356 34.9183 6.97246 34.9183 13.7927C34.9183 20.6129 40.4472 26.1418 47.2674 26.1418ZM47.3384 21.4577C51.6108 21.4577 55.0743 17.9942 55.0743 13.7217C55.0743 9.44927 51.6108 5.98576 47.3384 5.98576C43.0659 5.98576 39.6024 9.44927 39.6024 13.7217C39.6024 17.9942 43.0659 21.4577 47.3384 21.4577ZM50.6741 13.7927C50.6741 15.6741 49.1488 17.1994 47.2674 17.1994C45.3859 17.1994 43.8607 15.6741 43.8607 13.7927C43.8607 11.9112 45.3859 10.386 47.2674 10.386C49.1488 10.386 50.6741 11.9112 50.6741 13.7927ZM11.4975 1.72745H0V21.9901L4.8261 17.0915V6.6955H11.6394C15.5591 6.6955 18.7366 9.87302 18.7366 13.7927C18.7366 17.7124 15.5591 20.8899 11.6394 20.8899H4.8261V20.8098L0 25.7084V25.858H11.4975C18.1609 25.858 23.5627 20.4562 23.5627 13.7927C23.5627 7.12925 18.1609 1.72745 11.4975 1.72745ZM110.574 13.7927C110.574 20.6129 105.046 26.1418 98.2254 26.1418C91.4051 26.1418 85.8762 20.6129 85.8762 13.7927C85.8762 6.97246 91.4051 1.44356 98.2254 1.44356C105.046 1.44356 110.574 6.97246 110.574 13.7927ZM106.032 13.7217C106.032 17.9942 102.569 21.4577 98.2963 21.4577C94.0239 21.4577 90.5604 17.9942 90.5604 13.7217C90.5604 9.44927 94.0239 5.98576 98.2963 5.98576C102.569 5.98576 106.032 9.44927 106.032 13.7217ZM98.2253 17.1994C100.107 17.1994 101.632 15.6741 101.632 13.7927C101.632 11.9112 100.107 10.386 98.2253 10.386C96.3439 10.386 94.8187 11.9112 94.8187 13.7927C94.8187 15.6741 96.3439 17.1994 98.2253 17.1994ZM125.195 6.6955H113.139L108.386 1.72745H124.911C129.458 1.72745 133.144 5.41338 133.144 9.96021C133.144 13.4206 131.009 16.3824 127.984 17.6002L134 25.858H128.029L121.93 17.4861L121.935 17.4826L121.93 17.476V13.5088H125.195C127.076 13.5088 128.601 11.9836 128.601 10.1022C128.601 8.22071 127.076 6.6955 125.195 6.6955ZM118.665 9.96021H113.839V25.858H118.665V9.96021ZM31.5116 1.72745H26.9694V25.858H31.5116V1.72745Z" fill="#9EE840"/>
</svg>
